<svg xmlns="http://www.w3.org/2000/svg" width="90" height="90" fill="none" viewBox="0 0 90 90"><g opacity="0.993"><mask id="a" width="84" height="64" x="3" y="13" fill="#000" maskUnits="userSpaceOnUse"><path fill="#fff" d="M3 13h84v64H3z"/><path fill-rule="evenodd" d="M40.281 15h1.907c2.119.069 4.192.428 6.218 1.078a12.873 12.873 0 0 1 4.469 2.563c1.541 1.484 2.37 3.301 2.484 5.453a12.787 12.787 0 0 1-1.03 5.781 20.073 20.073 0 0 1-5.923 7.64 20.7 20.7 0 0 1-6.25 3.407 29.444 29.444 0 0 1-9.437 1.703 18.966 18.966 0 0 1-3.782-.39c-1.94-.457-3.55-1.442-4.828-2.954a3.92 3.92 0 0 1-.687-1.468 1.323 1.323 0 0 1 0-.407.45.45 0 0 1 .406-.343.712.712 0 0 1 .328.171 6.602 6.602 0 0 0 2.657 1.907c1.347.514 2.742.77 4.187.765 5.248-.226 9.967-1.898 14.156-5.015a18.556 18.556 0 0 0 4.266-4.578c.536-.854.963-1.76 1.281-2.72a6.666 6.666 0 0 0 .156-3.75 3.842 3.842 0 0 0-1.265-1.952 8.51 8.51 0 0 0-3.344-1.563 18.782 18.782 0 0 0-5.344-.437A33.79 33.79 0 0 0 31 22.078a56.285 56.285 0 0 0-12.906 7.094 28.613 28.613 0 0 0-4.328 4.078 13.202 13.202 0 0 0-2.344 4.156c-.847 2.613-.472 5.03 1.125 7.25a19.892 19.892 0 0 0 3.328 3.422 861.153 861.153 0 0 1 5.469 4.313 21.029 21.029 0 0 1 2.203 2.109 965.77 965.77 0 0 1 7.922-4.328 14.404 14.404 0 0 1 4.593-4.094 6.192 6.192 0 0 1 2.25-.719c1.542-.08 2.474.633 2.797 2.141a8.02 8.02 0 0 1 .094 1.844c-.035.367-.076.732-.125 1.093.129-.076.249-.164.36-.265a1.492 1.492 0 0 1 1.218-.125c.364.09.671.273.922.547.125.183.193.386.203.61a8.944 8.944 0 0 1-.234 1.077 113.019 113.019 0 0 0-1.781 7.188 7.316 7.316 0 0 0-.094 2.062.593.593 0 0 0 .094.282c.213-.225.39-.475.53-.75.331-.63.654-1.266.97-1.907a638.401 638.401 0 0 0 5.968-13.375 20.15 20.15 0 0 0 .688-2.375c.06-.373.274-.607.64-.703a8.596 8.596 0 0 1 2.485-.36 3.245 3.245 0 0 1 1.578.329.88.88 0 0 1 .375.562 27.114 27.114 0 0 0-.922 3.141 8.097 8.097 0 0 0-.094 1.781 20.9 20.9 0 0 0 .282 2c.265.806.608 1.577 1.03 2.313a90.804 90.804 0 0 0 4.22-7.657c.228-.487.426-.987.593-1.5.18-.905.43-1.79.75-2.656.127-.134.279-.233.453-.297a7.375 7.375 0 0 1 2.47-.359c.47-.03.927.028 1.374.172.198.083.37.203.516.36a.621.621 0 0 1 .11.327l-.704 2.297a8.065 8.065 0 0 0-.281 2.719c.067.65.161 1.296.281 1.938.077.241.16.481.25.718.4.883.832 1.748 1.297 2.594 3.354-1.586 6.854-2.029 10.5-1.328a11.096 11.096 0 0 1 5.406 2.812 8.164 8.164 0 0 1 2.328 4.297c.441 2.936-.678 5.025-3.359 6.266a1.654 1.654 0 0 1-.906.094c-.224-.24-.203-.458.062-.657a5.45 5.45 0 0 0 2.203-2.14 3.75 3.75 0 0 0 .282-2.719 6.245 6.245 0 0 0-1.985-3.14 9.735 9.735 0 0 0-3.437-1.813 17.362 17.362 0 0 0-8.156-.281 10.67 10.67 0 0 0-2.094.672c.404.976.623 1.991.656 3.046a4.563 4.563 0 0 1-.766 2.578 9.931 9.931 0 0 1-3.859 3.204c-.697.29-1.405.551-2.125.78-.724.207-1.39.093-2-.343a1.942 1.942 0 0 1-.64-1.39 6.314 6.314 0 0 1 .437-2.47c.428-1.033.99-1.98 1.687-2.843a36.86 36.86 0 0 1 1.22-1.375c.438-.398.87-.8 1.296-1.203a28.16 28.16 0 0 1-1.234-2.672 31.377 31.377 0 0 1-.938-3.656 61.639 61.639 0 0 1-4.766 8.11 9.722 9.722 0 0 1 .938 3.78c-.019 1.778-.696 3.246-2.031 4.407a11.246 11.246 0 0 1-4.625 2.156 8.487 8.487 0 0 1-2.219.156 1.752 1.752 0 0 1-1.328-.61 1.418 1.418 0 0 1-.156-1.124 2.9 2.9 0 0 1 .53-1 351.916 351.916 0 0 1 4.032-4.875c.43-.578.852-1.162 1.266-1.75a91.963 91.963 0 0 0-.985-2.063 13.76 13.76 0 0 1-.968-2.781 70.133 70.133 0 0 1-.47-2 111.552 111.552 0 0 1-5.093 11.125l-1.906 3.5a8.044 8.044 0 0 1-2.078 2.36c-.77.487-1.53.477-2.282-.032a2.67 2.67 0 0 1-.671-.984 6.658 6.658 0 0 1-.375-1.938 16.397 16.397 0 0 1 0-1.437c.035-.502.076-1.002.125-1.5a57.915 57.915 0 0 1-2.25 4.906 6.762 6.762 0 0 1-1.391 1.89 2.783 2.783 0 0 1-2.156.532 2.417 2.417 0 0 1-1.703-.89 9.319 9.319 0 0 1-1.594-3.22 12.788 12.788 0 0 1-.344-5.843c.15-1.222.427-2.415.828-3.578l-.031-.047a115.512 115.512 0 0 0-4.406 2.515c.49.981.797 2.017.922 3.11.391 3.124-.171 6.062-1.688 8.812-1.859 3.053-4.51 5.08-7.953 6.078-.867.22-1.742.35-2.625.391h-.656a11.32 11.32 0 0 1-2.844-.484 4.159 4.159 0 0 1-1.828-1.766 7.009 7.009 0 0 1-.719-4.688 9.177 9.177 0 0 1 1.906-4.156 17.938 17.938 0 0 1 2.547-2.484 42.282 42.282 0 0 1 5.906-3.906c.86-.467 1.725-.925 2.594-1.375a28.82 28.82 0 0 0-1.781-1.407 547.596 547.596 0 0 0-4.594-3.187 52.218 52.218 0 0 1-4.156-3.281 55.336 55.336 0 0 1-1.578-1.547 15.414 15.414 0 0 1-2.75-3.969A10.621 10.621 0 0 1 5 40.156v-1.312a13.02 13.02 0 0 1 1.172-3.907 23.453 23.453 0 0 1 3.875-5.562 38.02 38.02 0 0 1 6.422-5.453 62.906 62.906 0 0 1 15.625-7.531A33.36 33.36 0 0 1 40.28 15Zm-2 33.531c.157-.005.313 0 .469.016.243.096.358.278.344.547a9.983 9.983 0 0 1-.266 1.5 51.102 51.102 0 0 1-1.469 4.593c-.415 1.05-.82 2.101-1.218 3.157a29.449 29.449 0 0 1-1.688 3.687c-.664 1.1-1.184 1.037-1.562-.187a8.688 8.688 0 0 1-.266-2.328 14.538 14.538 0 0 1 1.953-7.203 19.21 19.21 0 0 1 1.25-1.97 5.805 5.805 0 0 1 1.984-1.64c.159-.061.315-.119.47-.172Zm26.25 6.188c.406 1.213.306 2.39-.297 3.531a4.491 4.491 0 0 1-1.609 1.578 9.43 9.43 0 0 1-1.047.484.412.412 0 0 1-.14-.328 9.747 9.747 0 0 1 1.859-3.953c.395-.452.806-.89 1.234-1.312Zm-41.969 3.093c.981 3.682.195 6.932-2.359 9.75a9.475 9.475 0 0 1-4.484 2.766 4.61 4.61 0 0 1-1.938.063c-.702-.214-1.103-.688-1.203-1.422a4.867 4.867 0 0 1 .219-2.156 9.229 9.229 0 0 1 2.703-4.047 41.556 41.556 0 0 1 4.625-3.47 139 139 0 0 0 2.438-1.483Zm31.375.5c.05.446-.008.884-.171 1.313a5.475 5.475 0 0 1-1.453 2.047 9.297 9.297 0 0 1-1.657 1.187.92.92 0 0 1-.562.11l-.032-.047 2.485-2.797c.483-.592.946-1.196 1.39-1.813Z" clip-rule="evenodd"/></mask><path fill="#CD6699" fill-rule="evenodd" d="M40.281 15h1.907c2.119.069 4.192.428 6.218 1.078a12.873 12.873 0 0 1 4.469 2.563c1.541 1.484 2.37 3.301 2.484 5.453a12.787 12.787 0 0 1-1.03 5.781 20.073 20.073 0 0 1-5.923 7.64 20.7 20.7 0 0 1-6.25 3.407 29.444 29.444 0 0 1-9.437 1.703 18.966 18.966 0 0 1-3.782-.39c-1.94-.457-3.55-1.442-4.828-2.954a3.92 3.92 0 0 1-.687-1.468 1.323 1.323 0 0 1 0-.407.45.45 0 0 1 .406-.343.712.712 0 0 1 .328.171 6.602 6.602 0 0 0 2.657 1.907c1.347.514 2.742.77 4.187.765 5.248-.226 9.967-1.898 14.156-5.015a18.556 18.556 0 0 0 4.266-4.578c.536-.854.963-1.76 1.281-2.72a6.666 6.666 0 0 0 .156-3.75 3.842 3.842 0 0 0-1.265-1.952 8.51 8.51 0 0 0-3.344-1.563 18.782 18.782 0 0 0-5.344-.437A33.79 33.79 0 0 0 31 22.078a56.285 56.285 0 0 0-12.906 7.094 28.613 28.613 0 0 0-4.328 4.078 13.202 13.202 0 0 0-2.344 4.156c-.847 2.613-.472 5.03 1.125 7.25a19.892 19.892 0 0 0 3.328 3.422 861.153 861.153 0 0 1 5.469 4.313 21.029 21.029 0 0 1 2.203 2.109 965.77 965.77 0 0 1 7.922-4.328 14.404 14.404 0 0 1 4.593-4.094 6.192 6.192 0 0 1 2.25-.719c1.542-.08 2.474.633 2.797 2.141a8.02 8.02 0 0 1 .094 1.844c-.035.367-.076.732-.125 1.093.129-.076.249-.164.36-.265a1.492 1.492 0 0 1 1.218-.125c.364.09.671.273.922.547.125.183.193.386.203.61a8.944 8.944 0 0 1-.234 1.077 113.019 113.019 0 0 0-1.781 7.188 7.316 7.316 0 0 0-.094 2.062.593.593 0 0 0 .094.282c.213-.225.39-.475.53-.75.331-.63.654-1.266.97-1.907a638.401 638.401 0 0 0 5.968-13.375 20.15 20.15 0 0 0 .688-2.375c.06-.373.274-.607.64-.703a8.596 8.596 0 0 1 2.485-.36 3.245 3.245 0 0 1 1.578.329.88.88 0 0 1 .375.562 27.114 27.114 0 0 0-.922 3.141 8.097 8.097 0 0 0-.094 1.781 20.9 20.9 0 0 0 .282 2c.265.806.608 1.577 1.03 2.313a90.804 90.804 0 0 0 4.22-7.657c.228-.487.426-.987.593-1.5.18-.905.43-1.79.75-2.656.127-.134.279-.233.453-.297a7.375 7.375 0 0 1 2.47-.359c.47-.03.927.028 1.374.172.198.083.37.203.516.36a.621.621 0 0 1 .11.327l-.704 2.297a8.065 8.065 0 0 0-.281 2.719c.067.65.161 1.296.281 1.938.077.241.16.481.25.718.4.883.832 1.748 1.297 2.594 3.354-1.586 6.854-2.029 10.5-1.328a11.096 11.096 0 0 1 5.406 2.812 8.164 8.164 0 0 1 2.328 4.297c.441 2.936-.678 5.025-3.359 6.266a1.654 1.654 0 0 1-.906.094c-.224-.24-.203-.458.062-.657a5.45 5.45 0 0 0 2.203-2.14 3.75 3.75 0 0 0 .282-2.719 6.245 6.245 0 0 0-1.985-3.14 9.735 9.735 0 0 0-3.437-1.813 17.362 17.362 0 0 0-8.156-.281 10.67 10.67 0 0 0-2.094.672c.404.976.623 1.991.656 3.046a4.563 4.563 0 0 1-.766 2.578 9.931 9.931 0 0 1-3.859 3.204c-.697.29-1.405.551-2.125.78-.724.207-1.39.093-2-.343a1.942 1.942 0 0 1-.64-1.39 6.314 6.314 0 0 1 .437-2.47c.428-1.033.99-1.98 1.687-2.843a36.86 36.86 0 0 1 1.22-1.375c.438-.398.87-.8 1.296-1.203a28.16 28.16 0 0 1-1.234-2.672 31.377 31.377 0 0 1-.938-3.656 61.639 61.639 0 0 1-4.766 8.11 9.722 9.722 0 0 1 .938 3.78c-.019 1.778-.696 3.246-2.031 4.407a11.246 11.246 0 0 1-4.625 2.156 8.487 8.487 0 0 1-2.219.156 1.752 1.752 0 0 1-1.328-.61 1.418 1.418 0 0 1-.156-1.124 2.9 2.9 0 0 1 .53-1 351.916 351.916 0 0 1 4.032-4.875c.43-.578.852-1.162 1.266-1.75a91.963 91.963 0 0 0-.985-2.063 13.76 13.76 0 0 1-.968-2.781 70.133 70.133 0 0 1-.47-2 111.552 111.552 0 0 1-5.093 11.125l-1.906 3.5a8.044 8.044 0 0 1-2.078 2.36c-.77.487-1.53.477-2.282-.032a2.67 2.67 0 0 1-.671-.984 6.658 6.658 0 0 1-.375-1.938 16.397 16.397 0 0 1 0-1.437c.035-.502.076-1.002.125-1.5a57.915 57.915 0 0 1-2.25 4.906 6.762 6.762 0 0 1-1.391 1.89 2.783 2.783 0 0 1-2.156.532 2.417 2.417 0 0 1-1.703-.89 9.319 9.319 0 0 1-1.594-3.22 12.788 12.788 0 0 1-.344-5.843c.15-1.222.427-2.415.828-3.578l-.031-.047a115.512 115.512 0 0 0-4.406 2.515c.49.981.797 2.017.922 3.11.391 3.124-.171 6.062-1.688 8.812-1.859 3.053-4.51 5.08-7.953 6.078-.867.22-1.742.35-2.625.391h-.656a11.32 11.32 0 0 1-2.844-.484 4.159 4.159 0 0 1-1.828-1.766 7.009 7.009 0 0 1-.719-4.688 9.177 9.177 0 0 1 1.906-4.156 17.938 17.938 0 0 1 2.547-2.484 42.282 42.282 0 0 1 5.906-3.906c.86-.467 1.725-.925 2.594-1.375a28.82 28.82 0 0 0-1.781-1.407 547.596 547.596 0 0 0-4.594-3.187 52.218 52.218 0 0 1-4.156-3.281 55.336 55.336 0 0 1-1.578-1.547 15.414 15.414 0 0 1-2.75-3.969A10.621 10.621 0 0 1 5 40.156v-1.312a13.02 13.02 0 0 1 1.172-3.907 23.453 23.453 0 0 1 3.875-5.562 38.02 38.02 0 0 1 6.422-5.453 62.906 62.906 0 0 1 15.625-7.531A33.36 33.36 0 0 1 40.28 15Zm-2 33.531c.157-.005.313 0 .469.016.243.096.358.278.344.547a9.983 9.983 0 0 1-.266 1.5 51.102 51.102 0 0 1-1.469 4.593c-.415 1.05-.82 2.101-1.218 3.157a29.449 29.449 0 0 1-1.688 3.687c-.664 1.1-1.184 1.037-1.562-.187a8.688 8.688 0 0 1-.266-2.328 14.538 14.538 0 0 1 1.953-7.203 19.21 19.21 0 0 1 1.25-1.97 5.805 5.805 0 0 1 1.984-1.64c.159-.061.315-.119.47-.172Zm26.25 6.188c.406 1.213.306 2.39-.297 3.531a4.491 4.491 0 0 1-1.609 1.578 9.43 9.43 0 0 1-1.047.484.412.412 0 0 1-.14-.328 9.747 9.747 0 0 1 1.859-3.953c.395-.452.806-.89 1.234-1.312Zm-41.969 3.093c.981 3.682.195 6.932-2.359 9.75a9.475 9.475 0 0 1-4.484 2.766 4.61 4.61 0 0 1-1.938.063c-.702-.214-1.103-.688-1.203-1.422a4.867 4.867 0 0 1 .219-2.156 9.229 9.229 0 0 1 2.703-4.047 41.556 41.556 0 0 1 4.625-3.47 139 139 0 0 0 2.438-1.483Zm31.375.5c.05.446-.008.884-.171 1.313a5.475 5.475 0 0 1-1.453 2.047 9.297 9.297 0 0 1-1.657 1.187.92.92 0 0 1-.562.11l-.032-.047 2.485-2.797c.483-.592.946-1.196 1.39-1.813Z" clip-rule="evenodd"/><path stroke="#9B4A73" stroke-width="4" d="M40.281 15h1.907c2.119.069 4.192.428 6.218 1.078a12.873 12.873 0 0 1 4.469 2.563c1.541 1.484 2.37 3.301 2.484 5.453a12.787 12.787 0 0 1-1.03 5.781 20.073 20.073 0 0 1-5.923 7.64 20.7 20.7 0 0 1-6.25 3.407 29.444 29.444 0 0 1-9.437 1.703 18.966 18.966 0 0 1-3.782-.39c-1.94-.457-3.55-1.442-4.828-2.954a3.92 3.92 0 0 1-.687-1.468 1.323 1.323 0 0 1 0-.407.45.45 0 0 1 .406-.343.712.712 0 0 1 .328.171 6.602 6.602 0 0 0 2.657 1.907c1.347.514 2.742.77 4.187.765 5.248-.226 9.967-1.898 14.156-5.015a18.556 18.556 0 0 0 4.266-4.578c.536-.854.963-1.76 1.281-2.72a6.666 6.666 0 0 0 .156-3.75 3.842 3.842 0 0 0-1.265-1.952 8.51 8.51 0 0 0-3.344-1.563 18.782 18.782 0 0 0-5.344-.437A33.79 33.79 0 0 0 31 22.078a56.285 56.285 0 0 0-12.906 7.094 28.613 28.613 0 0 0-4.328 4.078 13.202 13.202 0 0 0-2.344 4.156c-.847 2.613-.472 5.03 1.125 7.25a19.892 19.892 0 0 0 3.328 3.422 861.153 861.153 0 0 1 5.469 4.313 21.029 21.029 0 0 1 2.203 2.109 965.77 965.77 0 0 1 7.922-4.328 14.404 14.404 0 0 1 4.593-4.094 6.192 6.192 0 0 1 2.25-.719c1.542-.08 2.474.633 2.797 2.141a8.02 8.02 0 0 1 .094 1.844c-.035.367-.076.732-.125 1.093.129-.076.249-.164.36-.265a1.492 1.492 0 0 1 1.218-.125c.364.09.671.273.922.547.125.183.193.386.203.61a8.944 8.944 0 0 1-.234 1.077 113.019 113.019 0 0 0-1.781 7.188 7.316 7.316 0 0 0-.094 2.062.593.593 0 0 0 .094.282c.213-.225.39-.475.53-.75.331-.63.654-1.266.97-1.907a638.401 638.401 0 0 0 5.968-13.375 20.15 20.15 0 0 0 .688-2.375c.06-.373.274-.607.64-.703a8.596 8.596 0 0 1 2.485-.36 3.245 3.245 0 0 1 1.578.329.88.88 0 0 1 .375.562 27.114 27.114 0 0 0-.922 3.141 8.097 8.097 0 0 0-.094 1.781 20.9 20.9 0 0 0 .282 2c.265.806.608 1.577 1.03 2.313a90.804 90.804 0 0 0 4.22-7.657c.228-.487.426-.987.593-1.5.18-.905.43-1.79.75-2.656.127-.134.279-.233.453-.297a7.375 7.375 0 0 1 2.47-.359c.47-.03.927.028 1.374.172.198.083.37.203.516.36a.621.621 0 0 1 .11.327l-.704 2.297a8.065 8.065 0 0 0-.281 2.719c.067.65.161 1.296.281 1.938.077.241.16.481.25.718.4.883.832 1.748 1.297 2.594 3.354-1.586 6.854-2.029 10.5-1.328a11.096 11.096 0 0 1 5.406 2.812 8.164 8.164 0 0 1 2.328 4.297c.441 2.936-.678 5.025-3.359 6.266a1.654 1.654 0 0 1-.906.094c-.224-.24-.203-.458.062-.657a5.45 5.45 0 0 0 2.203-2.14 3.75 3.75 0 0 0 .282-2.719 6.245 6.245 0 0 0-1.985-3.14 9.735 9.735 0 0 0-3.437-1.813 17.362 17.362 0 0 0-8.156-.281 10.67 10.67 0 0 0-2.094.672c.404.976.623 1.991.656 3.046a4.563 4.563 0 0 1-.766 2.578 9.931 9.931 0 0 1-3.859 3.204c-.697.29-1.405.551-2.125.78-.724.207-1.39.093-2-.343a1.942 1.942 0 0 1-.64-1.39 6.314 6.314 0 0 1 .437-2.47c.428-1.033.99-1.98 1.687-2.843a36.86 36.86 0 0 1 1.22-1.375c.438-.398.87-.8 1.296-1.203a28.16 28.16 0 0 1-1.234-2.672 31.377 31.377 0 0 1-.938-3.656 61.639 61.639 0 0 1-4.766 8.11 9.722 9.722 0 0 1 .938 3.78c-.019 1.778-.696 3.246-2.031 4.407a11.246 11.246 0 0 1-4.625 2.156 8.487 8.487 0 0 1-2.219.156 1.752 1.752 0 0 1-1.328-.61 1.418 1.418 0 0 1-.156-1.124 2.9 2.9 0 0 1 .53-1 351.916 351.916 0 0 1 4.032-4.875c.43-.578.852-1.162 1.266-1.75a91.963 91.963 0 0 0-.985-2.063 13.76 13.76 0 0 1-.968-2.781 70.133 70.133 0 0 1-.47-2 111.552 111.552 0 0 1-5.093 11.125l-1.906 3.5a8.044 8.044 0 0 1-2.078 2.36c-.77.487-1.53.477-2.282-.032a2.67 2.67 0 0 1-.671-.984 6.658 6.658 0 0 1-.375-1.938 16.397 16.397 0 0 1 0-1.437c.035-.502.076-1.002.125-1.5a57.915 57.915 0 0 1-2.25 4.906 6.762 6.762 0 0 1-1.391 1.89 2.783 2.783 0 0 1-2.156.532 2.417 2.417 0 0 1-1.703-.89 9.319 9.319 0 0 1-1.594-3.22 12.788 12.788 0 0 1-.344-5.843c.15-1.222.427-2.415.828-3.578l-.031-.047a115.512 115.512 0 0 0-4.406 2.515c.49.981.797 2.017.922 3.11.391 3.124-.171 6.062-1.688 8.812-1.859 3.053-4.51 5.08-7.953 6.078-.867.22-1.742.35-2.625.391h-.656a11.32 11.32 0 0 1-2.844-.484 4.159 4.159 0 0 1-1.828-1.766 7.009 7.009 0 0 1-.719-4.688 9.177 9.177 0 0 1 1.906-4.156 17.938 17.938 0 0 1 2.547-2.484 42.282 42.282 0 0 1 5.906-3.906c.86-.467 1.725-.925 2.594-1.375a28.82 28.82 0 0 0-1.781-1.407 547.596 547.596 0 0 0-4.594-3.187 52.218 52.218 0 0 1-4.156-3.281 55.336 55.336 0 0 1-1.578-1.547 15.414 15.414 0 0 1-2.75-3.969A10.621 10.621 0 0 1 5 40.156v-1.312a13.02 13.02 0 0 1 1.172-3.907 23.453 23.453 0 0 1 3.875-5.562 38.02 38.02 0 0 1 6.422-5.453 62.906 62.906 0 0 1 15.625-7.531A33.36 33.36 0 0 1 40.28 15Zm-2 33.531c.157-.005.313 0 .469.016.243.096.358.278.344.547a9.983 9.983 0 0 1-.266 1.5 51.102 51.102 0 0 1-1.469 4.593c-.415 1.05-.82 2.101-1.218 3.157a29.449 29.449 0 0 1-1.688 3.687c-.664 1.1-1.184 1.037-1.562-.187a8.688 8.688 0 0 1-.266-2.328 14.538 14.538 0 0 1 1.953-7.203 19.21 19.21 0 0 1 1.25-1.97 5.805 5.805 0 0 1 1.984-1.64c.159-.061.315-.119.47-.172Zm26.25 6.188c.406 1.213.306 2.39-.297 3.531a4.491 4.491 0 0 1-1.609 1.578 9.43 9.43 0 0 1-1.047.484.412.412 0 0 1-.14-.328 9.747 9.747 0 0 1 1.859-3.953c.395-.452.806-.89 1.234-1.312Zm-41.969 3.093c.981 3.682.195 6.932-2.359 9.75a9.475 9.475 0 0 1-4.484 2.766 4.61 4.61 0 0 1-1.938.063c-.702-.214-1.103-.688-1.203-1.422a4.867 4.867 0 0 1 .219-2.156 9.229 9.229 0 0 1 2.703-4.047 41.556 41.556 0 0 1 4.625-3.47 139 139 0 0 0 2.438-1.483Zm31.375.5c.05.446-.008.884-.171 1.313a5.475 5.475 0 0 1-1.453 2.047 9.297 9.297 0 0 1-1.657 1.187.92.92 0 0 1-.562.11l-.032-.047 2.485-2.797c.483-.592.946-1.196 1.39-1.813Z" clip-rule="evenodd" mask="url(#a)"/></g></svg>