<svg width="90" height="90" viewBox="0 0 90 90" fill="none" xmlns="http://www.w3.org/2000/svg">
<g opacity="0.993">
<mask id="path-1-outside-1_523_265" maskUnits="userSpaceOnUse" x="3" y="13" width="84" height="64" fill="black">
<rect fill="white" x="3" y="13" width="84" height="64"/>
<path fill-rule="evenodd" clip-rule="evenodd" d="M40.2812 15C40.9166 15 41.5522 15 42.1875 15C44.3069 15.0685 46.3797 15.4279 48.4062 16.0781C50.075 16.6349 51.5644 17.489 52.875 18.6406C54.4162 20.1247 55.2444 21.9424 55.3594 24.0938C55.4641 26.1011 55.1203 28.0281 54.3281 29.875C52.9775 32.9029 51.0038 35.4498 48.4062 37.5156C46.5291 39.0067 44.4459 40.1421 42.1562 40.9219C39.1037 42.0053 35.9578 42.573 32.7188 42.625C31.4449 42.6214 30.1845 42.4912 28.9375 42.2344C26.9964 41.7775 25.387 40.7932 24.1094 39.2812C23.7786 38.8417 23.5494 38.3521 23.4219 37.8125C23.401 37.6771 23.401 37.5417 23.4219 37.4062C23.4806 37.2045 23.616 37.0899 23.8281 37.0625C23.9533 37.0912 24.0627 37.1485 24.1562 37.2344C24.8805 38.0916 25.766 38.727 26.8125 39.1406C28.1597 39.6551 29.5555 39.9103 31 39.9062C36.2482 39.6797 40.9669 38.0078 45.1562 34.8906C46.8412 33.6018 48.2631 32.0758 49.4219 30.3125C49.9578 29.4592 50.385 28.5529 50.7031 27.5938C51.1144 26.3574 51.1666 25.1074 50.8594 23.8438C50.6391 23.0612 50.2172 22.4102 49.5938 21.8906C48.5978 21.1272 47.4834 20.6064 46.25 20.3281C44.4903 19.9268 42.7091 19.7809 40.9062 19.8906C37.4938 20.1213 34.1918 20.8505 31 22.0781C26.3686 23.8877 22.0665 26.2523 18.0938 29.1719C16.5124 30.3781 15.0697 31.7375 13.7656 33.25C12.7351 34.4874 11.9539 35.8728 11.4219 37.4062C10.5748 40.0193 10.9498 42.436 12.5469 44.6562C13.5173 45.9288 14.6267 47.0694 15.875 48.0781C17.7036 49.5081 19.5265 50.9456 21.3438 52.3906C22.1272 53.0384 22.8615 53.7416 23.5469 54.5C26.18 53.0453 28.8206 51.6028 31.4688 50.1719C32.7082 48.4737 34.2395 47.1091 36.0625 46.0781C36.7666 45.6941 37.5166 45.4545 38.3125 45.3594C39.8541 45.2784 40.7862 45.992 41.1094 47.5C41.2116 48.1106 41.2428 48.7253 41.2031 49.3438C41.1681 49.7113 41.1266 50.0756 41.0781 50.4375C41.2066 50.3609 41.3266 50.2725 41.4375 50.1719C41.8247 49.9559 42.2309 49.9141 42.6562 50.0469C43.02 50.1375 43.3272 50.3197 43.5781 50.5938C43.7034 50.7769 43.7713 50.98 43.7812 51.2031C43.7253 51.5672 43.6472 51.9266 43.5469 52.2812C42.8747 54.6575 42.2809 57.0531 41.7656 59.4688C41.6369 60.1522 41.6056 60.8397 41.6719 61.5312C41.6797 61.6341 41.7109 61.7278 41.7656 61.8125C41.9791 61.5884 42.1562 61.3384 42.2969 61.0625C42.6272 60.4328 42.9503 59.7975 43.2656 59.1562C45.3066 54.72 47.2962 50.2619 49.2344 45.7812C49.5119 45.004 49.7412 44.2124 49.9219 43.4062C49.9822 43.0335 50.1956 42.7991 50.5625 42.7031C51.3722 42.4619 52.2003 42.3421 53.0469 42.3438C53.6019 42.3207 54.1278 42.4301 54.625 42.6719C54.8241 42.8088 54.9491 42.9963 55 43.2344C54.6294 44.2627 54.3222 45.3096 54.0781 46.375C53.9813 46.9653 53.95 47.5591 53.9844 48.1562C54.0459 48.8275 54.1397 49.4944 54.2656 50.1562C54.5306 50.9622 54.8744 51.7328 55.2969 52.4688C56.8225 49.9909 58.2287 47.4388 59.5156 44.8125C59.7441 44.3249 59.9422 43.8249 60.1094 43.3125C60.2897 42.4071 60.5397 41.5216 60.8594 40.6562C60.9862 40.5223 61.1375 40.4234 61.3125 40.3594C62.1144 40.0995 62.9372 39.9797 63.7812 40C64.2512 39.9702 64.7094 40.0275 65.1562 40.1719C65.3541 40.2552 65.5259 40.3749 65.6719 40.5312C65.74 40.6307 65.7763 40.7401 65.7812 40.8594C65.5472 41.6244 65.3128 42.39 65.0781 43.1562C64.8297 44.0465 64.7359 44.9528 64.7969 45.875C64.8644 46.525 64.9581 47.1706 65.0781 47.8125C65.1553 48.0544 65.2388 48.2941 65.3281 48.5312C65.7281 49.4144 66.1603 50.2791 66.625 51.125C69.9794 49.5391 73.4794 49.0962 77.125 49.7969C79.1984 50.2344 81.0003 51.1719 82.5312 52.6094C83.7434 53.7994 84.5197 55.2316 84.8594 56.9062C85.3003 59.8422 84.1806 61.9309 81.5 63.1719C81.205 63.2881 80.9028 63.3194 80.5938 63.2656C80.3703 63.0266 80.3913 62.8078 80.6562 62.6094C81.5956 62.1075 82.33 61.3938 82.8594 60.4688C83.295 59.5984 83.3888 58.6922 83.1406 57.75C82.7969 56.5006 82.1356 55.4538 81.1562 54.6094C80.1378 53.7772 78.9922 53.1731 77.7188 52.7969C75.0219 52.055 72.3031 51.9613 69.5625 52.5156C68.8406 52.6678 68.1428 52.8916 67.4688 53.1875C67.8728 54.1637 68.0916 55.1794 68.125 56.2344C68.1287 57.1712 67.8734 58.0306 67.3594 58.8125C66.3466 60.2106 65.0603 61.2784 63.5 62.0156C62.8034 62.3069 62.095 62.5672 61.375 62.7969C60.6506 63.0034 59.9841 62.8887 59.375 62.4531C58.9722 62.0794 58.7584 61.6159 58.7344 61.0625C58.715 60.2113 58.8609 59.3884 59.1719 58.5938C59.5997 57.56 60.1622 56.6122 60.8594 55.75C61.2541 55.2825 61.6603 54.8241 62.0781 54.375C62.5166 53.9769 62.9487 53.5759 63.375 53.1719C62.9166 52.3019 62.505 51.4112 62.1406 50.5C61.7547 49.3 61.4422 48.0812 61.2031 46.8438C59.8156 49.6778 58.2269 52.3809 56.4375 54.9531C57.005 56.1497 57.3175 57.4103 57.375 58.7344C57.3562 60.5116 56.6791 61.9803 55.3438 63.1406C53.9734 64.2109 52.4319 64.9297 50.7188 65.2969C49.9859 65.4463 49.2462 65.4984 48.5 65.4531C47.9659 65.4422 47.5231 65.2391 47.1719 64.8438C46.9634 64.4938 46.9116 64.1188 47.0156 63.7188C47.1278 63.3487 47.3047 63.0153 47.5469 62.7188C48.8756 61.0822 50.2194 59.4572 51.5781 57.8438C52.0078 57.2656 52.4297 56.6825 52.8438 56.0938C52.5244 55.4025 52.1962 54.715 51.8594 54.0312C51.4372 53.1397 51.1144 52.2125 50.8906 51.25C50.7241 50.5834 50.5678 49.9166 50.4219 49.25C48.9284 53.0497 47.2303 56.7581 45.3281 60.375C44.6922 61.5428 44.0569 62.7094 43.4219 63.875C42.8847 64.7978 42.1922 65.5841 41.3438 66.2344C40.5741 66.7222 39.8134 66.7119 39.0625 66.2031C38.7644 65.9256 38.5403 65.5975 38.3906 65.2188C38.1694 64.5919 38.0444 63.9459 38.0156 63.2812C37.9947 62.8022 37.9947 62.3228 38.0156 61.8438C38.0506 61.3419 38.0922 60.8419 38.1406 60.3438C37.4675 62.0128 36.7175 63.6481 35.8906 65.25C35.5377 65.9606 35.0742 66.5909 34.5 67.1406C33.8589 67.6159 33.1402 67.7931 32.3438 67.6719C31.6521 67.61 31.0844 67.3131 30.6406 66.7812C29.903 65.8163 29.3717 64.7434 29.0469 63.5625C28.4805 61.6416 28.3659 59.6938 28.7031 57.7188C28.8537 56.4966 29.1298 55.3041 29.5312 54.1406C29.5208 54.125 29.5104 54.1094 29.5 54.0938C28.0112 54.9009 26.5424 55.7397 25.0938 56.6094C25.5837 57.59 25.891 58.6263 26.0156 59.7188C26.4073 62.8434 25.8448 65.7809 24.3281 68.5312C22.4692 71.5844 19.8181 73.6103 16.375 74.6094C15.5085 74.8291 14.6335 74.9594 13.75 75C13.5312 75 13.3125 75 13.0938 75C12.1294 74.9609 11.1815 74.7994 10.25 74.5156C9.45644 74.1178 8.84706 73.5294 8.42188 72.75C7.63798 71.2734 7.3984 69.7109 7.70312 68.0625C7.99067 66.51 8.62609 65.1247 9.60938 63.9062C10.3772 62.9925 11.2262 62.1644 12.1562 61.4219C14.0124 59.9569 15.9812 58.6547 18.0625 57.5156C18.9221 57.0494 19.7867 56.5909 20.6562 56.1406C20.0805 55.6481 19.4867 55.1794 18.875 54.7344C17.3492 53.6641 15.8179 52.6016 14.2812 51.5469C12.8419 50.5247 11.4565 49.4309 10.125 48.2656C9.58944 47.7613 9.06337 47.2456 8.54688 46.7188C7.42306 45.5423 6.50639 44.2193 5.79688 42.75C5.41929 41.916 5.15367 41.0514 5 40.1562C5 39.7188 5 39.2812 5 38.8438C5.1841 37.4838 5.57472 36.1817 6.17188 34.9375C7.19569 32.8935 8.48734 31.0393 10.0469 29.375C11.9932 27.3129 14.1338 25.4952 16.4688 23.9219C21.3158 20.6965 26.5241 18.1861 32.0938 16.3906C34.7693 15.5853 37.4984 15.1218 40.2812 15ZM38.2812 48.5312C38.4378 48.5259 38.5941 48.5312 38.75 48.5469C38.9934 48.6425 39.1081 48.8247 39.0938 49.0938C39.0434 49.6003 38.955 50.1003 38.8281 50.5938C38.4109 52.1481 37.9212 53.6794 37.3594 55.1875C36.9444 56.2363 36.5381 57.2881 36.1406 58.3438C35.6622 59.6131 35.0997 60.8422 34.4531 62.0312C33.7893 63.1306 33.2685 63.0681 32.8906 61.8438C32.697 61.08 32.6084 60.3041 32.625 59.5156C32.6495 56.9434 33.3006 54.5425 34.5781 52.3125C34.9557 51.6297 35.3724 50.9734 35.8281 50.3438C36.3681 49.6472 37.0297 49.1003 37.8125 48.7031C37.9709 48.6419 38.1272 48.5844 38.2812 48.5312ZM64.5312 54.7188C64.9366 55.9322 64.8375 57.1091 64.2344 58.25C63.8319 58.9131 63.2953 59.4391 62.625 59.8281C62.285 60.0113 61.9359 60.1728 61.5781 60.3125C61.4822 60.2263 61.4353 60.1169 61.4375 59.9844C61.7603 58.5216 62.38 57.2038 63.2969 56.0312C63.6919 55.5791 64.1034 55.1416 64.5312 54.7188ZM22.5625 57.8125C23.5432 61.4938 22.7568 64.7438 20.2031 67.5625C18.9726 68.9066 17.4778 69.8284 15.7188 70.3281C15.0768 70.4862 14.431 70.5072 13.7812 70.3906C13.0788 70.1772 12.6777 69.7034 12.5781 68.9688C12.4889 68.2344 12.5618 67.5156 12.7969 66.8125C13.3359 65.2216 14.237 63.8725 15.5 62.7656C16.9621 61.5013 18.5038 60.345 20.125 59.2969C20.9447 58.8091 21.7572 58.3144 22.5625 57.8125ZM53.9375 58.3125C53.9869 58.7581 53.9294 59.1956 53.7656 59.625C53.44 60.4194 52.9556 61.1019 52.3125 61.6719C51.8041 62.1284 51.2519 62.5241 50.6562 62.8594C50.4775 62.9562 50.29 62.9928 50.0938 62.9688C50.0834 62.9531 50.0728 62.9375 50.0625 62.9219C50.8903 61.99 51.7184 61.0575 52.5469 60.125C53.03 59.5331 53.4934 58.9287 53.9375 58.3125Z"/>
</mask>
<path fill-rule="evenodd" clip-rule="evenodd" d="M40.2812 15C40.9166 15 41.5522 15 42.1875 15C44.3069 15.0685 46.3797 15.4279 48.4062 16.0781C50.075 16.6349 51.5644 17.489 52.875 18.6406C54.4162 20.1247 55.2444 21.9424 55.3594 24.0938C55.4641 26.1011 55.1203 28.0281 54.3281 29.875C52.9775 32.9029 51.0038 35.4498 48.4062 37.5156C46.5291 39.0067 44.4459 40.1421 42.1562 40.9219C39.1037 42.0053 35.9578 42.573 32.7188 42.625C31.4449 42.6214 30.1845 42.4912 28.9375 42.2344C26.9964 41.7775 25.387 40.7932 24.1094 39.2812C23.7786 38.8417 23.5494 38.3521 23.4219 37.8125C23.401 37.6771 23.401 37.5417 23.4219 37.4062C23.4806 37.2045 23.616 37.0899 23.8281 37.0625C23.9533 37.0912 24.0627 37.1485 24.1562 37.2344C24.8805 38.0916 25.766 38.727 26.8125 39.1406C28.1597 39.6551 29.5555 39.9103 31 39.9062C36.2482 39.6797 40.9669 38.0078 45.1562 34.8906C46.8412 33.6018 48.2631 32.0758 49.4219 30.3125C49.9578 29.4592 50.385 28.5529 50.7031 27.5938C51.1144 26.3574 51.1666 25.1074 50.8594 23.8438C50.6391 23.0612 50.2172 22.4102 49.5938 21.8906C48.5978 21.1272 47.4834 20.6064 46.25 20.3281C44.4903 19.9268 42.7091 19.7809 40.9062 19.8906C37.4938 20.1213 34.1918 20.8505 31 22.0781C26.3686 23.8877 22.0665 26.2523 18.0938 29.1719C16.5124 30.3781 15.0697 31.7375 13.7656 33.25C12.7351 34.4874 11.9539 35.8728 11.4219 37.4062C10.5748 40.0193 10.9498 42.436 12.5469 44.6562C13.5173 45.9288 14.6267 47.0694 15.875 48.0781C17.7036 49.5081 19.5265 50.9456 21.3438 52.3906C22.1272 53.0384 22.8615 53.7416 23.5469 54.5C26.18 53.0453 28.8206 51.6028 31.4688 50.1719C32.7082 48.4737 34.2395 47.1091 36.0625 46.0781C36.7666 45.6941 37.5166 45.4545 38.3125 45.3594C39.8541 45.2784 40.7862 45.992 41.1094 47.5C41.2116 48.1106 41.2428 48.7253 41.2031 49.3438C41.1681 49.7113 41.1266 50.0756 41.0781 50.4375C41.2066 50.3609 41.3266 50.2725 41.4375 50.1719C41.8247 49.9559 42.2309 49.9141 42.6562 50.0469C43.02 50.1375 43.3272 50.3197 43.5781 50.5938C43.7034 50.7769 43.7713 50.98 43.7812 51.2031C43.7253 51.5672 43.6472 51.9266 43.5469 52.2812C42.8747 54.6575 42.2809 57.0531 41.7656 59.4688C41.6369 60.1522 41.6056 60.8397 41.6719 61.5312C41.6797 61.6341 41.7109 61.7278 41.7656 61.8125C41.9791 61.5884 42.1562 61.3384 42.2969 61.0625C42.6272 60.4328 42.9503 59.7975 43.2656 59.1562C45.3066 54.72 47.2962 50.2619 49.2344 45.7812C49.5119 45.004 49.7412 44.2124 49.9219 43.4062C49.9822 43.0335 50.1956 42.7991 50.5625 42.7031C51.3722 42.4619 52.2003 42.3421 53.0469 42.3438C53.6019 42.3207 54.1278 42.4301 54.625 42.6719C54.8241 42.8088 54.9491 42.9963 55 43.2344C54.6294 44.2627 54.3222 45.3096 54.0781 46.375C53.9813 46.9653 53.95 47.5591 53.9844 48.1562C54.0459 48.8275 54.1397 49.4944 54.2656 50.1562C54.5306 50.9622 54.8744 51.7328 55.2969 52.4688C56.8225 49.9909 58.2287 47.4388 59.5156 44.8125C59.7441 44.3249 59.9422 43.8249 60.1094 43.3125C60.2897 42.4071 60.5397 41.5216 60.8594 40.6562C60.9862 40.5223 61.1375 40.4234 61.3125 40.3594C62.1144 40.0995 62.9372 39.9797 63.7812 40C64.2512 39.9702 64.7094 40.0275 65.1562 40.1719C65.3541 40.2552 65.5259 40.3749 65.6719 40.5312C65.74 40.6307 65.7763 40.7401 65.7812 40.8594C65.5472 41.6244 65.3128 42.39 65.0781 43.1562C64.8297 44.0465 64.7359 44.9528 64.7969 45.875C64.8644 46.525 64.9581 47.1706 65.0781 47.8125C65.1553 48.0544 65.2388 48.2941 65.3281 48.5312C65.7281 49.4144 66.1603 50.2791 66.625 51.125C69.9794 49.5391 73.4794 49.0962 77.125 49.7969C79.1984 50.2344 81.0003 51.1719 82.5312 52.6094C83.7434 53.7994 84.5197 55.2316 84.8594 56.9062C85.3003 59.8422 84.1806 61.9309 81.5 63.1719C81.205 63.2881 80.9028 63.3194 80.5938 63.2656C80.3703 63.0266 80.3913 62.8078 80.6562 62.6094C81.5956 62.1075 82.33 61.3938 82.8594 60.4688C83.295 59.5984 83.3888 58.6922 83.1406 57.75C82.7969 56.5006 82.1356 55.4538 81.1562 54.6094C80.1378 53.7772 78.9922 53.1731 77.7188 52.7969C75.0219 52.055 72.3031 51.9613 69.5625 52.5156C68.8406 52.6678 68.1428 52.8916 67.4688 53.1875C67.8728 54.1637 68.0916 55.1794 68.125 56.2344C68.1287 57.1712 67.8734 58.0306 67.3594 58.8125C66.3466 60.2106 65.0603 61.2784 63.5 62.0156C62.8034 62.3069 62.095 62.5672 61.375 62.7969C60.6506 63.0034 59.9841 62.8887 59.375 62.4531C58.9722 62.0794 58.7584 61.6159 58.7344 61.0625C58.715 60.2113 58.8609 59.3884 59.1719 58.5938C59.5997 57.56 60.1622 56.6122 60.8594 55.75C61.2541 55.2825 61.6603 54.8241 62.0781 54.375C62.5166 53.9769 62.9487 53.5759 63.375 53.1719C62.9166 52.3019 62.505 51.4112 62.1406 50.5C61.7547 49.3 61.4422 48.0812 61.2031 46.8438C59.8156 49.6778 58.2269 52.3809 56.4375 54.9531C57.005 56.1497 57.3175 57.4103 57.375 58.7344C57.3562 60.5116 56.6791 61.9803 55.3438 63.1406C53.9734 64.2109 52.4319 64.9297 50.7188 65.2969C49.9859 65.4463 49.2462 65.4984 48.5 65.4531C47.9659 65.4422 47.5231 65.2391 47.1719 64.8438C46.9634 64.4938 46.9116 64.1188 47.0156 63.7188C47.1278 63.3487 47.3047 63.0153 47.5469 62.7188C48.8756 61.0822 50.2194 59.4572 51.5781 57.8438C52.0078 57.2656 52.4297 56.6825 52.8438 56.0938C52.5244 55.4025 52.1962 54.715 51.8594 54.0312C51.4372 53.1397 51.1144 52.2125 50.8906 51.25C50.7241 50.5834 50.5678 49.9166 50.4219 49.25C48.9284 53.0497 47.2303 56.7581 45.3281 60.375C44.6922 61.5428 44.0569 62.7094 43.4219 63.875C42.8847 64.7978 42.1922 65.5841 41.3438 66.2344C40.5741 66.7222 39.8134 66.7119 39.0625 66.2031C38.7644 65.9256 38.5403 65.5975 38.3906 65.2188C38.1694 64.5919 38.0444 63.9459 38.0156 63.2812C37.9947 62.8022 37.9947 62.3228 38.0156 61.8438C38.0506 61.3419 38.0922 60.8419 38.1406 60.3438C37.4675 62.0128 36.7175 63.6481 35.8906 65.25C35.5377 65.9606 35.0742 66.5909 34.5 67.1406C33.8589 67.6159 33.1402 67.7931 32.3438 67.6719C31.6521 67.61 31.0844 67.3131 30.6406 66.7812C29.903 65.8163 29.3717 64.7434 29.0469 63.5625C28.4805 61.6416 28.3659 59.6938 28.7031 57.7188C28.8537 56.4966 29.1298 55.3041 29.5312 54.1406C29.5208 54.125 29.5104 54.1094 29.5 54.0938C28.0112 54.9009 26.5424 55.7397 25.0938 56.6094C25.5837 57.59 25.891 58.6263 26.0156 59.7188C26.4073 62.8434 25.8448 65.7809 24.3281 68.5312C22.4692 71.5844 19.8181 73.6103 16.375 74.6094C15.5085 74.8291 14.6335 74.9594 13.75 75C13.5312 75 13.3125 75 13.0938 75C12.1294 74.9609 11.1815 74.7994 10.25 74.5156C9.45644 74.1178 8.84706 73.5294 8.42188 72.75C7.63798 71.2734 7.3984 69.7109 7.70312 68.0625C7.99067 66.51 8.62609 65.1247 9.60938 63.9062C10.3772 62.9925 11.2262 62.1644 12.1562 61.4219C14.0124 59.9569 15.9812 58.6547 18.0625 57.5156C18.9221 57.0494 19.7867 56.5909 20.6562 56.1406C20.0805 55.6481 19.4867 55.1794 18.875 54.7344C17.3492 53.6641 15.8179 52.6016 14.2812 51.5469C12.8419 50.5247 11.4565 49.4309 10.125 48.2656C9.58944 47.7613 9.06337 47.2456 8.54688 46.7188C7.42306 45.5423 6.50639 44.2193 5.79688 42.75C5.41929 41.916 5.15367 41.0514 5 40.1562C5 39.7188 5 39.2812 5 38.8438C5.1841 37.4838 5.57472 36.1817 6.17188 34.9375C7.19569 32.8935 8.48734 31.0393 10.0469 29.375C11.9932 27.3129 14.1338 25.4952 16.4688 23.9219C21.3158 20.6965 26.5241 18.1861 32.0938 16.3906C34.7693 15.5853 37.4984 15.1218 40.2812 15ZM38.2812 48.5312C38.4378 48.5259 38.5941 48.5312 38.75 48.5469C38.9934 48.6425 39.1081 48.8247 39.0938 49.0938C39.0434 49.6003 38.955 50.1003 38.8281 50.5938C38.4109 52.1481 37.9212 53.6794 37.3594 55.1875C36.9444 56.2363 36.5381 57.2881 36.1406 58.3438C35.6622 59.6131 35.0997 60.8422 34.4531 62.0312C33.7893 63.1306 33.2685 63.0681 32.8906 61.8438C32.697 61.08 32.6084 60.3041 32.625 59.5156C32.6495 56.9434 33.3006 54.5425 34.5781 52.3125C34.9557 51.6297 35.3724 50.9734 35.8281 50.3438C36.3681 49.6472 37.0297 49.1003 37.8125 48.7031C37.9709 48.6419 38.1272 48.5844 38.2812 48.5312ZM64.5312 54.7188C64.9366 55.9322 64.8375 57.1091 64.2344 58.25C63.8319 58.9131 63.2953 59.4391 62.625 59.8281C62.285 60.0113 61.9359 60.1728 61.5781 60.3125C61.4822 60.2263 61.4353 60.1169 61.4375 59.9844C61.7603 58.5216 62.38 57.2038 63.2969 56.0312C63.6919 55.5791 64.1034 55.1416 64.5312 54.7188ZM22.5625 57.8125C23.5432 61.4938 22.7568 64.7438 20.2031 67.5625C18.9726 68.9066 17.4778 69.8284 15.7188 70.3281C15.0768 70.4862 14.431 70.5072 13.7812 70.3906C13.0788 70.1772 12.6777 69.7034 12.5781 68.9688C12.4889 68.2344 12.5618 67.5156 12.7969 66.8125C13.3359 65.2216 14.237 63.8725 15.5 62.7656C16.9621 61.5013 18.5038 60.345 20.125 59.2969C20.9447 58.8091 21.7572 58.3144 22.5625 57.8125ZM53.9375 58.3125C53.9869 58.7581 53.9294 59.1956 53.7656 59.625C53.44 60.4194 52.9556 61.1019 52.3125 61.6719C51.8041 62.1284 51.2519 62.5241 50.6562 62.8594C50.4775 62.9562 50.29 62.9928 50.0938 62.9688C50.0834 62.9531 50.0728 62.9375 50.0625 62.9219C50.8903 61.99 51.7184 61.0575 52.5469 60.125C53.03 59.5331 53.4934 58.9287 53.9375 58.3125Z" fill="#CD6699"/>
<path fill-rule="evenodd" clip-rule="evenodd" d="M40.2812 15C40.9166 15 41.5522 15 42.1875 15C44.3069 15.0685 46.3797 15.4279 48.4062 16.0781C50.075 16.6349 51.5644 17.489 52.875 18.6406C54.4162 20.1247 55.2444 21.9424 55.3594 24.0938C55.4641 26.1011 55.1203 28.0281 54.3281 29.875C52.9775 32.9029 51.0038 35.4498 48.4062 37.5156C46.5291 39.0067 44.4459 40.1421 42.1562 40.9219C39.1037 42.0053 35.9578 42.573 32.7188 42.625C31.4449 42.6214 30.1845 42.4912 28.9375 42.2344C26.9964 41.7775 25.387 40.7932 24.1094 39.2812C23.7786 38.8417 23.5494 38.3521 23.4219 37.8125C23.401 37.6771 23.401 37.5417 23.4219 37.4062C23.4806 37.2045 23.616 37.0899 23.8281 37.0625C23.9533 37.0912 24.0627 37.1485 24.1562 37.2344C24.8805 38.0916 25.766 38.727 26.8125 39.1406C28.1597 39.6551 29.5555 39.9103 31 39.9062C36.2482 39.6797 40.9669 38.0078 45.1562 34.8906C46.8412 33.6018 48.2631 32.0758 49.4219 30.3125C49.9578 29.4592 50.385 28.5529 50.7031 27.5938C51.1144 26.3574 51.1666 25.1074 50.8594 23.8438C50.6391 23.0612 50.2172 22.4102 49.5938 21.8906C48.5978 21.1272 47.4834 20.6064 46.25 20.3281C44.4903 19.9268 42.7091 19.7809 40.9062 19.8906C37.4938 20.1213 34.1918 20.8505 31 22.0781C26.3686 23.8877 22.0665 26.2523 18.0938 29.1719C16.5124 30.3781 15.0697 31.7375 13.7656 33.25C12.7351 34.4874 11.9539 35.8728 11.4219 37.4062C10.5748 40.0193 10.9498 42.436 12.5469 44.6562C13.5173 45.9288 14.6267 47.0694 15.875 48.0781C17.7036 49.5081 19.5265 50.9456 21.3438 52.3906C22.1272 53.0384 22.8615 53.7416 23.5469 54.5C26.18 53.0453 28.8206 51.6028 31.4688 50.1719C32.7082 48.4737 34.2395 47.1091 36.0625 46.0781C36.7666 45.6941 37.5166 45.4545 38.3125 45.3594C39.8541 45.2784 40.7862 45.992 41.1094 47.5C41.2116 48.1106 41.2428 48.7253 41.2031 49.3438C41.1681 49.7113 41.1266 50.0756 41.0781 50.4375C41.2066 50.3609 41.3266 50.2725 41.4375 50.1719C41.8247 49.9559 42.2309 49.9141 42.6562 50.0469C43.02 50.1375 43.3272 50.3197 43.5781 50.5938C43.7034 50.7769 43.7713 50.98 43.7812 51.2031C43.7253 51.5672 43.6472 51.9266 43.5469 52.2812C42.8747 54.6575 42.2809 57.0531 41.7656 59.4688C41.6369 60.1522 41.6056 60.8397 41.6719 61.5312C41.6797 61.6341 41.7109 61.7278 41.7656 61.8125C41.9791 61.5884 42.1562 61.3384 42.2969 61.0625C42.6272 60.4328 42.9503 59.7975 43.2656 59.1562C45.3066 54.72 47.2962 50.2619 49.2344 45.7812C49.5119 45.004 49.7412 44.2124 49.9219 43.4062C49.9822 43.0335 50.1956 42.7991 50.5625 42.7031C51.3722 42.4619 52.2003 42.3421 53.0469 42.3438C53.6019 42.3207 54.1278 42.4301 54.625 42.6719C54.8241 42.8088 54.9491 42.9963 55 43.2344C54.6294 44.2627 54.3222 45.3096 54.0781 46.375C53.9813 46.9653 53.95 47.5591 53.9844 48.1562C54.0459 48.8275 54.1397 49.4944 54.2656 50.1562C54.5306 50.9622 54.8744 51.7328 55.2969 52.4688C56.8225 49.9909 58.2287 47.4388 59.5156 44.8125C59.7441 44.3249 59.9422 43.8249 60.1094 43.3125C60.2897 42.4071 60.5397 41.5216 60.8594 40.6562C60.9862 40.5223 61.1375 40.4234 61.3125 40.3594C62.1144 40.0995 62.9372 39.9797 63.7812 40C64.2512 39.9702 64.7094 40.0275 65.1562 40.1719C65.3541 40.2552 65.5259 40.3749 65.6719 40.5312C65.74 40.6307 65.7763 40.7401 65.7812 40.8594C65.5472 41.6244 65.3128 42.39 65.0781 43.1562C64.8297 44.0465 64.7359 44.9528 64.7969 45.875C64.8644 46.525 64.9581 47.1706 65.0781 47.8125C65.1553 48.0544 65.2388 48.2941 65.3281 48.5312C65.7281 49.4144 66.1603 50.2791 66.625 51.125C69.9794 49.5391 73.4794 49.0962 77.125 49.7969C79.1984 50.2344 81.0003 51.1719 82.5312 52.6094C83.7434 53.7994 84.5197 55.2316 84.8594 56.9062C85.3003 59.8422 84.1806 61.9309 81.5 63.1719C81.205 63.2881 80.9028 63.3194 80.5938 63.2656C80.3703 63.0266 80.3913 62.8078 80.6562 62.6094C81.5956 62.1075 82.33 61.3938 82.8594 60.4688C83.295 59.5984 83.3888 58.6922 83.1406 57.75C82.7969 56.5006 82.1356 55.4538 81.1562 54.6094C80.1378 53.7772 78.9922 53.1731 77.7188 52.7969C75.0219 52.055 72.3031 51.9613 69.5625 52.5156C68.8406 52.6678 68.1428 52.8916 67.4688 53.1875C67.8728 54.1637 68.0916 55.1794 68.125 56.2344C68.1287 57.1712 67.8734 58.0306 67.3594 58.8125C66.3466 60.2106 65.0603 61.2784 63.5 62.0156C62.8034 62.3069 62.095 62.5672 61.375 62.7969C60.6506 63.0034 59.9841 62.8887 59.375 62.4531C58.9722 62.0794 58.7584 61.6159 58.7344 61.0625C58.715 60.2113 58.8609 59.3884 59.1719 58.5938C59.5997 57.56 60.1622 56.6122 60.8594 55.75C61.2541 55.2825 61.6603 54.8241 62.0781 54.375C62.5166 53.9769 62.9487 53.5759 63.375 53.1719C62.9166 52.3019 62.505 51.4112 62.1406 50.5C61.7547 49.3 61.4422 48.0812 61.2031 46.8438C59.8156 49.6778 58.2269 52.3809 56.4375 54.9531C57.005 56.1497 57.3175 57.4103 57.375 58.7344C57.3562 60.5116 56.6791 61.9803 55.3438 63.1406C53.9734 64.2109 52.4319 64.9297 50.7188 65.2969C49.9859 65.4463 49.2462 65.4984 48.5 65.4531C47.9659 65.4422 47.5231 65.2391 47.1719 64.8438C46.9634 64.4938 46.9116 64.1188 47.0156 63.7188C47.1278 63.3487 47.3047 63.0153 47.5469 62.7188C48.8756 61.0822 50.2194 59.4572 51.5781 57.8438C52.0078 57.2656 52.4297 56.6825 52.8438 56.0938C52.5244 55.4025 52.1962 54.715 51.8594 54.0312C51.4372 53.1397 51.1144 52.2125 50.8906 51.25C50.7241 50.5834 50.5678 49.9166 50.4219 49.25C48.9284 53.0497 47.2303 56.7581 45.3281 60.375C44.6922 61.5428 44.0569 62.7094 43.4219 63.875C42.8847 64.7978 42.1922 65.5841 41.3438 66.2344C40.5741 66.7222 39.8134 66.7119 39.0625 66.2031C38.7644 65.9256 38.5403 65.5975 38.3906 65.2188C38.1694 64.5919 38.0444 63.9459 38.0156 63.2812C37.9947 62.8022 37.9947 62.3228 38.0156 61.8438C38.0506 61.3419 38.0922 60.8419 38.1406 60.3438C37.4675 62.0128 36.7175 63.6481 35.8906 65.25C35.5377 65.9606 35.0742 66.5909 34.5 67.1406C33.8589 67.6159 33.1402 67.7931 32.3438 67.6719C31.6521 67.61 31.0844 67.3131 30.6406 66.7812C29.903 65.8163 29.3717 64.7434 29.0469 63.5625C28.4805 61.6416 28.3659 59.6938 28.7031 57.7188C28.8537 56.4966 29.1298 55.3041 29.5312 54.1406C29.5208 54.125 29.5104 54.1094 29.5 54.0938C28.0112 54.9009 26.5424 55.7397 25.0938 56.6094C25.5837 57.59 25.891 58.6263 26.0156 59.7188C26.4073 62.8434 25.8448 65.7809 24.3281 68.5312C22.4692 71.5844 19.8181 73.6103 16.375 74.6094C15.5085 74.8291 14.6335 74.9594 13.75 75C13.5312 75 13.3125 75 13.0938 75C12.1294 74.9609 11.1815 74.7994 10.25 74.5156C9.45644 74.1178 8.84706 73.5294 8.42188 72.75C7.63798 71.2734 7.3984 69.7109 7.70312 68.0625C7.99067 66.51 8.62609 65.1247 9.60938 63.9062C10.3772 62.9925 11.2262 62.1644 12.1562 61.4219C14.0124 59.9569 15.9812 58.6547 18.0625 57.5156C18.9221 57.0494 19.7867 56.5909 20.6562 56.1406C20.0805 55.6481 19.4867 55.1794 18.875 54.7344C17.3492 53.6641 15.8179 52.6016 14.2812 51.5469C12.8419 50.5247 11.4565 49.4309 10.125 48.2656C9.58944 47.7613 9.06337 47.2456 8.54688 46.7188C7.42306 45.5423 6.50639 44.2193 5.79688 42.75C5.41929 41.916 5.15367 41.0514 5 40.1562C5 39.7188 5 39.2812 5 38.8438C5.1841 37.4838 5.57472 36.1817 6.17188 34.9375C7.19569 32.8935 8.48734 31.0393 10.0469 29.375C11.9932 27.3129 14.1338 25.4952 16.4688 23.9219C21.3158 20.6965 26.5241 18.1861 32.0938 16.3906C34.7693 15.5853 37.4984 15.1218 40.2812 15ZM38.2812 48.5312C38.4378 48.5259 38.5941 48.5312 38.75 48.5469C38.9934 48.6425 39.1081 48.8247 39.0938 49.0938C39.0434 49.6003 38.955 50.1003 38.8281 50.5938C38.4109 52.1481 37.9212 53.6794 37.3594 55.1875C36.9444 56.2363 36.5381 57.2881 36.1406 58.3438C35.6622 59.6131 35.0997 60.8422 34.4531 62.0312C33.7893 63.1306 33.2685 63.0681 32.8906 61.8438C32.697 61.08 32.6084 60.3041 32.625 59.5156C32.6495 56.9434 33.3006 54.5425 34.5781 52.3125C34.9557 51.6297 35.3724 50.9734 35.8281 50.3438C36.3681 49.6472 37.0297 49.1003 37.8125 48.7031C37.9709 48.6419 38.1272 48.5844 38.2812 48.5312ZM64.5312 54.7188C64.9366 55.9322 64.8375 57.1091 64.2344 58.25C63.8319 58.9131 63.2953 59.4391 62.625 59.8281C62.285 60.0113 61.9359 60.1728 61.5781 60.3125C61.4822 60.2263 61.4353 60.1169 61.4375 59.9844C61.7603 58.5216 62.38 57.2038 63.2969 56.0312C63.6919 55.5791 64.1034 55.1416 64.5312 54.7188ZM22.5625 57.8125C23.5432 61.4938 22.7568 64.7438 20.2031 67.5625C18.9726 68.9066 17.4778 69.8284 15.7188 70.3281C15.0768 70.4862 14.431 70.5072 13.7812 70.3906C13.0788 70.1772 12.6777 69.7034 12.5781 68.9688C12.4889 68.2344 12.5618 67.5156 12.7969 66.8125C13.3359 65.2216 14.237 63.8725 15.5 62.7656C16.9621 61.5013 18.5038 60.345 20.125 59.2969C20.9447 58.8091 21.7572 58.3144 22.5625 57.8125ZM53.9375 58.3125C53.9869 58.7581 53.9294 59.1956 53.7656 59.625C53.44 60.4194 52.9556 61.1019 52.3125 61.6719C51.8041 62.1284 51.2519 62.5241 50.6562 62.8594C50.4775 62.9562 50.29 62.9928 50.0938 62.9688C50.0834 62.9531 50.0728 62.9375 50.0625 62.9219C50.8903 61.99 51.7184 61.0575 52.5469 60.125C53.03 59.5331 53.4934 58.9287 53.9375 58.3125Z" stroke="#9B4A73" stroke-width="4" mask="url(#path-1-outside-1_523_265)"/>
</g>
</svg>
